<?xml version="1.0" encoding="UTF-8" standalone="no"?>
<!-- Created with Inkscape (http://www.inkscape.org/) -->

<svg width="569.00897" height="399.061" viewBox="0 0 150.55029 105.58521" version="1.1" id="svg1" xml:space="preserve"
  xmlns="http://www.w3.org/2000/svg"
  xmlns:svg="http://www.w3.org/2000/svg">
  <defs id="defs1" />
  <g id="layer1" transform="translate(-25.624316,-48.238602)">
    <g id="g43" transform="translate(-9.3488819,-14.809562)" style="fill:#f9fafb;fill-opacity:1">
      <path style="fill:#f9fafb;fill-opacity:1" d="m 107.30672,68.61617 c -2.1992,-1.34107 -0.36303,-4.34931 2.14875,-3.52035 1.25809,0.41521 1.77975,1.61404 1.22865,2.82358 -0.47141,1.03462 -2.2288,1.39718 -3.3774,0.69677 z" id="path39" />
      <path style="fill:#f9fafb;fill-opacity:1" d="m 101.10554,77.1632 c -1.9573,-0.90335 -2.75531,-3.09602 -1.82569,-5.01635 1.07878,-2.22847 3.87547,-2.80733 5.72358,-1.18467 0.94625,0.83082 1.25028,1.50682 1.25028,2.77991 0,1.24112 -0.27525,1.87464 -1.19761,2.75645 -1.14303,1.09277 -2.52075,1.32456 -3.95056,0.66466 z" id="path40" />
      <path style="fill:#f9fafb;fill-opacity:1" d="m 105.86517,124.17675 c -2.15638,-0.80296 -2.70126,-1.13497 -3.04473,-1.85523 -0.39085,-0.81962 -0.22827,-1.50924 0.44015,-1.86697 0.47612,-0.25481 0.6025,-0.22736 1.70511,0.37035 0.91767,0.49746 4.33838,2.56032 4.75874,2.86975 0.039,0.0287 -0.17952,0.27253 -0.48568,0.54176 -0.72977,0.64172 -1.52789,0.62761 -3.37359,-0.0597 z" id="path41" />
      <path style="fill:#f9fafb;fill-opacity:1" d="m 110.43054,159.1374 c -3.55888,-0.6292 -5.86926,-1.45215 -8.54792,-3.04473 -0.96164,-0.57174 -1.99213,-1.23818 -2.28997,-1.48099 l -0.54154,-0.44147 1.53435,-1.52266 1.53435,-1.52266 0.9499,0.40469 c 2.02092,0.86097 3.94006,1.21961 7.09365,1.32565 2.43059,0.0817 3.32094,0.0367 4.46823,-0.22582 1.70191,-0.38946 4.17863,-1.33855 3.0841,-1.18185 -1.92172,0.27514 -4.69717,0.32825 -5.93849,0.11363 -3.58104,-0.61913 -7.20994,-2.05544 -9.55522,-3.78194 -0.66807,-0.49181 -1.2571,-0.89419 -1.30897,-0.89419 -0.0519,0 -0.0735,0.18943 -0.048,0.42095 0.0401,0.36467 -0.18745,0.50612 -1.70216,1.05809 -0.96164,0.35044 -1.8528,0.64183 -1.98035,0.64755 -0.15592,0.007 -0.10741,-0.27109 0.14803,-0.84854 0.36993,-0.8363 1.14341,-3.63755 1.14939,-4.16267 0.002,-0.14408 -1.06236,1.16725 -2.36444,2.91406 -5.48087,7.35287 -7.1367,9.1655 -9.01442,9.86805 -0.87367,0.32688 -1.62765,0.38417 -5.73971,0.43615 -4.69149,0.0593 -4.7396,0.0558 -5.36823,-0.39258 -0.7932,-0.56575 -1.21126,-1.35615 -1.21126,-2.29002 0,-0.71988 0.87438,-2.26311 12.47861,-22.02389 2.31756,-3.94657 2.03256,-3.76577 5.45467,-3.46033 3.26027,0.291 6.88754,1.68121 9.55604,3.66252 1.12907,0.83831 2.81693,2.43597 2.81693,2.66639 0,0.0872 -0.32622,0.27647 -0.72494,0.42065 -0.98864,0.3575 -2.59345,2.05274 -3.647,3.85252 -0.48036,0.82059 -0.87337,1.57206 -0.87337,1.66993 0,0.0979 0.45896,-0.25478 1.01992,-0.78367 2.80819,-2.64766 6.41951,-4.33544 9.27643,-4.33544 3.84041,0 7.15274,2.41547 8.63361,6.29596 0.45328,1.18778 0.69797,1.54359 1.46242,2.12656 0.84973,0.64802 4.38134,2.45203 4.80019,2.45203 0.1011,0 -0.60839,-0.80999 -1.57665,-1.79998 -1.32569,-1.35545 -1.95995,-2.19018 -2.56823,-3.37999 -1.09075,-2.13349 -1.31862,-3.33575 -1.13544,-5.9906 0.0811,-1.17534 0.2018,-3.0112 0.26824,-4.07969 l 0.12081,-1.94271 1.00784,1.57316 c 0.55431,0.86523 1.28417,2.11694 1.62191,2.78156 0.33774,0.66462 0.65617,1.1663 0.70763,1.11485 0.30919,-0.30919 -2.09435,-7.47251 -3.56171,-10.61502 -0.47327,-1.01357 -0.77165,-1.87247 -0.66308,-1.90866 0.32758,-0.10919 2.34445,-1.47191 2.34424,-1.5839 -1.1e-4,-0.0573 -0.98361,-0.10418 -2.18555,-0.10418 -3.29014,0 -4.61373,-0.6366 -4.61373,-2.21906 0,-0.4261 -0.068,-0.60742 -0.18425,-0.49101 -0.25851,0.25893 -0.78988,2.37965 -0.67274,2.68491 0.0532,0.13869 0.4208,0.33222 0.81685,0.43007 l 0.72009,0.17791 -0.63554,0.4533 c -0.43182,0.30799 -0.9064,0.45329 -1.48052,0.45329 -1.00189,0 -2.62419,-0.65412 -3.23512,-1.30442 -0.3759,-0.40014 -0.42069,-0.60698 -0.32733,-1.5116 0.0595,-0.57641 0.38804,-1.72031 0.73011,-2.54199 0.34207,-0.82168 0.58344,-1.53246 0.53639,-1.57951 -0.0471,-0.0471 -0.48673,0.63499 -0.97707,1.51566 -0.87996,1.58046 -1.37918,2.92756 -1.16448,3.14227 0.2495,0.24949 -0.6905,0.0763 -1.44497,-0.26629 -1.04121,-0.47275 -1.5061,-1.1632 -1.34826,-2.00243 0.13153,-0.69938 1.02616,-2.61466 1.67917,-3.59487 0.23134,-0.34726 0.34647,-0.62911 0.25584,-0.62633 -0.21091,0.006 -2.27999,2.86318 -2.80936,3.87881 -0.32663,0.62665 -0.46377,0.73731 -0.72472,0.58478 -1.68324,-0.98387 -1.99372,-2.28903 -0.97061,-4.0801 0.72829,-1.27495 4.04705,-4.62966 5.04921,-5.10392 1.23814,-0.58592 1.85195,-0.44777 4.9566,1.11559 1.5851,0.7982 3.96031,1.92848 5.27823,2.51175 3.19729,1.41502 4.40754,2.16575 5.30421,3.29025 1.02324,1.28322 5.43585,8.39642 7.14793,11.52258 2.85755,5.21771 4.59394,9.76601 5.44024,14.25021 0.23677,1.25455 0.61737,5.87197 0.59997,7.27886 -0.007,0.53771 0.0436,1.42776 0.11169,1.9779 0.10717,0.86606 0.05,1.13579 -0.426,2.01039 -0.67852,1.24667 -2.20809,2.65266 -3.15656,2.90152 -0.39072,0.10253 -1.61927,0.28434 -2.7301,0.40404 -1.5326,0.16514 -2.46965,0.39653 -3.88542,0.95944 -4.01387,1.59592 -7.0867,2.15169 -11.77353,2.12945 -2.0485,-0.01 -3.77074,-0.13186 -5.05104,-0.35822 z" id="path42" />
      <path style="fill:#f9fafb;fill-opacity:1" d="m 74.56804,165.05955 c -3.30072,-0.91036 -5.92303,-3.26858 -7.1973,-6.47248 -0.38122,-0.95851 -0.44331,-1.46725 -0.44424,-3.63977 -9.1e-4,-2.11359 0.0645,-2.68396 0.40117,-3.49688 0.22124,-0.53424 5.4534,-9.62612 11.62703,-20.20416 14.28499,-24.47624 13.27646,-22.74748 13.99686,-23.99245 0.34006,-0.58767 1.35218,-2.33309 2.24915,-3.8787 l 1.63087,-2.81022 0.0554,-7.02815 0.0554,-7.02814 -1.57897,-0.0717 c -1.51031,-0.0686 -1.60448,-0.10026 -2.16561,-0.72828 -0.53218,-0.59561 -0.57862,-0.75335 -0.50019,-1.6991 0.10157,-1.22478 0.62612,-1.90855 1.69112,-2.20439 0.4261,-0.11837 5.49303,-0.19331 13.11494,-0.19398 11.98025,-10e-4 12.44871,0.0125 13.21465,0.38333 0.95437,0.462 1.46556,1.25502 1.46556,2.27356 0,1.45892 -1.04384,2.1988 -3.10209,2.1988 h -1.17187 v 6.80722 c 0,6.56952 0.0145,6.83577 0.41542,7.62513 0.22848,0.44985 1.80112,3.11322 3.49475,5.91861 2.91716,4.83208 3.04031,5.07607 2.33837,4.63296 -1.28043,-0.8083 -4.14927,-2.18703 -5.68103,-2.73023 l -1.47233,-0.52212 -1.56442,-2.65785 c -0.86043,-1.46181 -1.79333,-3.09425 -2.07311,-3.62765 l -0.50869,-0.9698 v -7.23814 -7.23813 h -5.43958 -5.43958 v 7.35998 c 0,7.82048 0.0233,7.60263 -1.00031,9.34731 -0.28211,0.48082 -2.894,4.98304 -5.80421,10.00495 -5.65747,9.7626 -5.6153,9.68999 -14.61087,25.15807 -9.31865,16.02363 -8.8912,15.2252 -8.88896,16.60332 0.002,1.49306 0.61175,2.84765 1.7375,3.86256 1.62347,1.46361 0.7379,1.37831 15.45356,1.48858 l 13.21042,0.099 1.45703,0.64249 c 1.50469,0.66351 4.06575,1.36654 6.60521,1.81319 2.29101,0.40296 9.56543,0.34777 11.75338,-0.0892 2.19579,-0.43849 4.65847,-1.17283 6.38272,-1.90326 l 1.33167,-0.56412 4.69072,9.7e-4 c 5.42247,0.001 6.04437,-0.12496 7.42632,-1.50538 1.82533,-1.82332 1.91578,-3.79638 0.3281,-7.15728 l -1.00164,-2.12034 -0.0953,-3.49687 c -0.0838,-3.07827 -0.39551,-5.78486 -0.80533,-6.99375 -0.15499,-0.45717 0.23014,0.16566 2.52262,4.07969 0.93873,1.60273 2.31255,3.93154 3.05292,5.17513 0.74037,1.24359 1.52815,2.72976 1.75061,3.3026 0.50533,1.30121 0.69396,4.44389 0.36256,6.04027 -0.71834,3.46023 -3.7048,6.48509 -7.32406,7.41824 -1.06699,0.2751 -4.58212,0.30592 -33.12317,0.29039 -25.15384,-0.0137 -32.11917,-0.0697 -32.82326,-0.26387 z" id="path43" />
    </g>
  </g>
</svg>
